# xmcd
#
# Track frame offsets: 
#        150
#        16020
#        30955
#        48533
#        64762
#        78478
#        92315
#        108553
#        122241
#        138182
#        151437
#        165760
#        181138
#        195542
#        211668
#        227715
#        245309
#        260573
#        274909
#        289125
#
# Disc length: 4067 seconds
#
# Revision: 2
# Processed by: cddbd v1.5.2PL0 Copyright (c) Steve Scherf et al.
# Submitted via: ExactAudioCopy v1.3
#
DISCID=010fe114
DTITLE=Various Artists (Priester) - NDS - Neuer Deutscher Schlager Vol
DTITLE=07
DYEAR=2005
DGENRE=Discofox
TTITLE0=Münchener Freiheit - Geile Zeit
TTITLE1=Looping - Ganz schön mutig
TTITLE2=Sandee Wagner - Der Böllemann (Radio Mix)
TTITLE3=Mickie Krause - Wirft der Arsch auch Falten
TTITLE4=Ballermann Andy and Die Bürokaufmannsfrau - How Do You Do
TTITLE5=Papaoke - Wir machen Party
TTITLE6=Lollies - Wahnsinn (...Hölle, Hölle, Hölle) (1. Version) (Mix 
TTITLE6=2004)
TTITLE7=Aleks Schmidt - Der Wedelsong
TTITLE8=Donky Doris - Ich will 'nen Cowboy als Mann (2005 Edition)
TTITLE9=Die Zwei (Gino D'Oro and Peter Sebastian) - Wir machen Party heu
TTITLE9=t Nacht
TTITLE10=Jürgen Renfordt - Im Namen der Liebe
TTITLE11=Danny Davis - Alles aus Liebe
TTITLE12=Hansi Süssenbach - Tränen lügen nicht
TTITLE13=Michael Morgan - Komm geh mit nach Kanada
TTITLE14=Tommy Fischer - Ich vermisse Dich
TTITLE15=Matthias Carras - Tanzen
TTITLE16=Uwe Busse - Die Hormone fahren Achterbahn
TTITLE17=Oliver Frank - Weit, weit von hier
TTITLE18=Marcus Sommer - Rest der Welt
TTITLE19=Willi Herren - Hör mir auf
EXTD=
EXTT0=
EXTT1=
EXTT2=
EXTT3=
EXTT4=
EXTT5=
EXTT6=
EXTT7=
EXTT8=
EXTT9=
EXTT10=
EXTT11=
EXTT12=
EXTT13=
EXTT14=
EXTT15=
EXTT16=
EXTT17=
EXTT18=
EXTT19=
PLAYORDER=
